<?xml version="1.0" encoding="UTF-8"?>
<svg version="1.1" xmlns="http://www.w3.org/2000/svg" width="500" height="500">
<path d="M0 0 C0.7839917 -0.0049649 1.5679834 -0.00992981 2.37573242 -0.01504517 C4.98804593 -0.02972779 7.60029836 -0.0364851 10.21264648 -0.04199219 C12.03376771 -0.04774644 13.85488893 -0.05350414 15.67601013 -0.05926514 C19.51040937 -0.06979768 23.34478754 -0.07562301 27.17919922 -0.07910156 C32.0507185 -0.0845374 36.92195129 -0.10844874 41.79338169 -0.13707352 C45.56594085 -0.15588501 49.33843424 -0.16091561 53.1110363 -0.16243744 C54.90366082 -0.16543198 56.6962851 -0.17334982 58.48886299 -0.18662262 C77.35711652 -0.31614963 96.67740326 1.15664085 111.52124023 14.16113281 C112.11420898 14.6496875 112.70717773 15.13824219 113.31811523 15.64160156 C121.33294023 22.82302661 126.71734799 33.58009589 127.72216797 44.3059082 C127.8238507 46.53323236 127.85054152 48.74410249 127.83374023 50.97363281 C127.82810059 51.76261963 127.82246094 52.55160645 127.81665039 53.36450195 C127.55424058 66.04201346 123.07458274 78.00912718 114.41186523 87.46972656 C105.79026401 95.18285328 96.34505977 100.60703833 84.65234375 100.609375 C83.91151047 100.62117294 83.17067719 100.63297089 82.40739441 100.64512634 C79.98825363 100.68007524 77.56949364 100.69442978 75.15014648 100.70800781 C73.46002399 100.72741522 71.76991422 100.74796125 70.07981873 100.76959229 C66.55388747 100.81177988 63.02804665 100.84450977 59.50195312 100.86962891 C54.97321809 100.90205226 50.44488378 100.95172152 45.91638279 101.00754929 C42.43444366 101.04972557 38.95246566 101.08623262 35.47044182 101.12064362 C33.79939706 101.13721163 32.12836195 101.15478369 30.45733833 101.17336273 C28.13302353 101.19769618 25.80876469 101.21519119 23.484375 101.23046875 C22.78988251 101.23870163 22.09539001 101.24693451 21.37985229 101.25541687 C19.76002498 101.26237715 18.14010712 101.2173376 16.52124023 101.16113281 C14.64335351 99.28324609 15.40115436 96.56947372 15.39682007 94.0713501 C15.40041534 93.19597595 15.40401062 92.32060181 15.40771484 91.41870117 C15.40756882 90.50171951 15.40742279 89.58473785 15.40727234 88.63996887 C15.40797184 85.59361446 15.41576596 82.54732036 15.42358398 79.50097656 C15.42544803 77.39490289 15.426872 75.28882878 15.4278717 73.18275452 C15.43169793 67.62770398 15.4415291 62.07267941 15.45257568 56.51763916 C15.46278757 50.85388541 15.46736884 45.19012748 15.47241211 39.52636719 C15.48315127 28.40460913 15.50074891 17.28287719 15.52124023 6.16113281 C7.60124023 6.16113281 -0.31875977 6.16113281 -8.47875977 6.16113281 C-8.47875977 -1.39747443 -6.4582423 0.00965962 0 0 Z M43.52124023 6.16113281 C43.52124023 36.19113281 43.52124023 66.22113281 43.52124023 97.16113281 C70.30967012 99.29622396 70.30967012 99.29622396 92.08374023 88.73535156 C101.10274229 79.28794691 101.72673793 66.60520152 101.76147461 54.25341797 C101.77108269 52.19488568 101.80209699 50.1373959 101.83374023 48.07910156 C101.93163081 35.97193315 101.10160243 23.45340279 92.52124023 14.16113281 C79.06142158 2.19684956 60.46603887 6.16113281 43.52124023 6.16113281 Z " fill="#000000" transform="translate(291.478759765625,126.8388671875)"/>
<path d="M0 0 C17.16 0 34.32 0 52 0 C57.73459317 13.76302361 57.73459317 13.76302361 60.0234375 20.4453125 C60.41823807 21.58166138 60.41823807 21.58166138 60.8210144 22.7409668 C61.38387889 24.36179302 61.94518043 25.98316276 62.50500488 27.6050415 C64.01870341 31.98949997 65.54477662 36.36964895 67.0703125 40.75 C67.54567444 42.11597824 67.54567444 42.11597824 68.03063965 43.509552 C72.34539687 55.88873157 76.77694634 68.22634671 81.20068359 80.56689453 C81.66065231 81.85092163 81.66065231 81.85092163 82.12991333 83.16088867 C82.70058796 84.75357878 83.27188961 86.34604442 83.84396362 87.93823242 C85.27952461 91.94324897 86.67241179 95.95747 88 100 C84.70265354 101.09911549 82.27041255 101.1139456 78.80078125 101.09765625 C76.98803711 101.09282227 76.98803711 101.09282227 75.13867188 101.08789062 C73.2447168 101.07532227 73.2447168 101.07532227 71.3125 101.0625 C69.40114258 101.05573242 69.40114258 101.05573242 67.45117188 101.04882812 C64.30073436 101.03702873 61.15039051 101.02056597 58 101 C54.94700845 93.60600185 52.24920627 86.12351281 49.6640625 78.5546875 C49.26222748 77.38600128 48.86039246 76.21731506 48.44638062 75.01321411 C47.17021475 71.30128565 45.8972393 67.58827594 44.625 63.875 C43.3598142 60.18317813 42.09380971 56.49164869 40.82504272 52.80105591 C40.0392656 50.51538155 39.25542732 48.22903923 38.47402954 45.94186401 C35.47959534 37.23134291 32.26566425 28.61152554 29 20 C28.98969254 20.98527679 28.97938507 21.97055359 28.96876526 22.98568726 C28.87114647 32.25629802 28.76842347 41.52683992 28.66066074 50.79733849 C28.60541979 55.56376174 28.55199791 60.33019112 28.50268555 65.09667969 C28.45505929 69.6937976 28.40271711 74.29083953 28.34705925 78.88786697 C28.32662781 80.64457948 28.30791605 82.40131282 28.29092598 84.15806198 C28.26689942 86.61245025 28.23684255 89.06669426 28.20532227 91.52099609 C28.1995668 92.25251389 28.19381134 92.98403168 28.18788147 93.73771667 C28.11405216 98.77189568 28.11405216 98.77189568 27 101 C25.35 100.67 23.7 100.34 22 100 C22 68.98 22 37.96 22 6 C14.74 6 7.48 6 0 6 C0 4.02 0 2.04 0 0 Z " fill="#000000" transform="translate(72,127)"/>
<path d="M0 0 C1.52663269 -0.00472824 1.52663269 -0.00472824 3.08410645 -0.009552 C4.19137085 -0.00752777 5.29863525 -0.00550354 6.43945312 -0.00341797 C7.56766479 -0.00437469 8.69587646 -0.00533142 9.85827637 -0.00631714 C12.24910538 -0.00699915 14.63993624 -0.00514344 17.03076172 -0.00097656 C20.70479464 0.00437137 24.37870529 -0.0009209 28.05273438 -0.00732422 C30.3691409 -0.00666344 32.68554734 -0.00538229 35.00195312 -0.00341797 C36.10921753 -0.0054422 37.21648193 -0.00746643 38.3572998 -0.009552 C39.8839325 -0.00482376 39.8839325 -0.00482376 41.44140625 0 C42.79256531 0.00119339 42.79256531 0.00119339 44.17102051 0.00241089 C46.22070312 0.12939453 46.22070312 0.12939453 47.22070312 1.12939453 C47.22070312 2.77939453 47.22070312 4.42939453 47.22070312 6.12939453 C39.96070313 6.12939453 32.70070313 6.12939453 25.22070312 6.12939453 C25.22593994 8.97169678 25.23117676 11.81399902 25.23657227 14.74243164 C25.25310678 24.11022285 25.26417379 33.4780147 25.2725153 42.84581661 C25.27774451 48.52815965 25.28484286 54.2104878 25.29614258 59.89282227 C25.30697009 65.37168589 25.31297967 70.85053515 25.31558037 76.32940865 C25.31743486 78.42469064 25.32105594 80.51997181 25.32643318 82.61524773 C25.33364181 85.53917037 25.33469414 88.46303286 25.33422852 91.38696289 C25.33782379 92.26233704 25.34141907 93.13771118 25.34512329 94.03961182 C25.33475529 100.01534237 25.33475529 100.01534237 24.22070312 101.12939453 C22.30612031 101.22911239 20.38787995 101.26020042 18.47070312 101.26220703 C17.30539063 101.26349609 16.14007813 101.26478516 14.93945312 101.26611328 C13.71226562 101.26224609 12.48507813 101.25837891 11.22070312 101.25439453 C9.37992188 101.26019531 9.37992188 101.26019531 7.50195312 101.26611328 C6.33664063 101.26482422 5.17132813 101.26353516 3.97070312 101.26220703 C2.89304688 101.2610791 1.81539062 101.25995117 0.70507812 101.25878906 C-1.77929688 101.12939453 -1.77929688 101.12939453 -2.77929688 100.12939453 C-2.90434772 97.54389681 -2.96534487 94.98378042 -2.98461914 92.39672852 C-2.99451874 91.58703613 -3.00441833 90.77734375 -3.01461792 89.94311523 C-3.04632675 87.25393648 -3.07102723 84.56474003 -3.09570312 81.87548828 C-3.11626457 80.01603219 -3.13726081 78.15658085 -3.15867615 76.2971344 C-3.21398053 71.39315638 -3.26335277 66.4891356 -3.31152344 61.58508301 C-3.36167754 56.58484066 -3.41739532 51.58466072 -3.47265625 46.58447266 C-3.58034009 36.76616654 -3.68176219 26.94780634 -3.77929688 17.12939453 C-3.99512421 17.7562616 -4.21095154 18.38312866 -4.43331909 19.0289917 C-9.34072908 33.28027366 -14.258345 47.52795592 -19.1930542 61.76980591 C-21.27527747 67.77989381 -23.35237324 73.79161629 -25.41531372 79.80834961 C-26.52737708 83.04360827 -27.65387435 86.2737594 -28.77929688 89.50439453 C-29.15683105 90.6165332 -29.53436523 91.72867188 -29.92333984 92.87451172 C-30.26768066 93.85323242 -30.61202148 94.83195312 -30.96679688 95.84033203 C-31.24910156 96.65808105 -31.53140625 97.47583008 -31.82226562 98.31835938 C-32.77929688 100.12939453 -32.77929688 100.12939453 -35.77929688 101.12939453 C-36.76929688 100.79939453 -37.75929687 100.46939453 -38.77929688 100.12939453 C-37.20336133 91.96460053 -34.55580953 84.23989229 -31.83398438 76.40283203 C-31.33992432 74.968782 -30.846291 73.53458489 -30.35305786 72.10025024 C-29.05516978 68.32978748 -27.75138426 64.56139028 -26.4463501 60.793396 C-25.14739805 57.03947764 -23.85425438 53.28356029 -22.56054688 49.52783203 C-20.32737033 43.04734403 -18.08750836 36.56919682 -15.84328842 30.09252548 C-14.31923092 25.6930132 -12.80194038 21.29122029 -11.28808594 16.88818359 C-10.55865525 14.77325353 -9.82916745 12.65834316 -9.09960938 10.54345703 C-8.77209686 9.58700287 -8.44458435 8.63054871 -8.10714722 7.64511108 C-7.81091461 6.78865997 -7.51468201 5.93220886 -7.20947266 5.04980469 C-6.82796555 3.9404808 -6.82796555 3.9404808 -6.43875122 2.80874634 C-5.10728117 -0.58194575 -3.41895863 0.00301974 0 0 Z " fill="#000000" transform="translate(228.779296875,126.87060546875)"/>
<path d="M0 0 C9.24 0 18.48 0 28 0 C28.495 19.8 28.495 19.8 29 40 C36.19522782 39.9604134 36.19522782 39.9604134 43.39038086 39.90991211 C44.28120361 39.90741455 45.17202637 39.90491699 46.08984375 39.90234375 C47.00628662 39.89710693 47.92272949 39.89187012 48.86694336 39.88647461 C51 40 51 40 52 41 C52.125 43.5 52.125 43.5 52 46 C50.10009993 47.89990007 46.7357997 47.12783941 44.21704102 47.12939453 C43.15362488 47.13202301 43.15362488 47.13202301 42.06872559 47.13470459 C39.71376126 47.13912336 37.35887141 47.13618473 35.00390625 47.1328125 C33.37344854 47.13348561 31.74299093 47.13445569 30.11253357 47.13571167 C26.69016569 47.13718874 23.26782385 47.13503409 19.84545898 47.13037109 C15.45245314 47.1246783 11.05950845 47.1279499 6.66650486 47.13394356 C3.29769935 47.13755278 -0.0710916 47.13640884 -3.43989754 47.13381577 C-5.05986602 47.13314726 -6.67983582 47.13397225 -8.29980278 47.13629532 C-10.56245307 47.13882725 -12.82500365 47.13497339 -15.08764648 47.12939453 C-16.37702621 47.12859894 -17.66640594 47.12780334 -18.99485779 47.12698364 C-22 47 -22 47 -24 46 C-24 44.35 -24 42.7 -24 41 C-16.14854796 39.42970959 -8.00694143 40 0 40 C0 26.8 0 13.6 0 0 Z " fill="#000000" transform="translate(307,269)"/>
<path d="M0 0 C9.24 0 18.48 0 28 0 C28.495 19.8 28.495 19.8 29 40 C35.6 40 42.2 40 49 40 C50 41 50 41 50.125 43.5 C50 46 50 46 49 47 C46.86329108 47.09952198 44.72325345 47.12799678 42.58422852 47.12939453 C41.5793338 47.13202301 41.5793338 47.13202301 40.55413818 47.13470459 C38.32903488 47.13912291 36.10401043 47.13618487 33.87890625 47.1328125 C32.33812952 47.13348563 30.7973529 47.13445572 29.25657654 47.13571167 C26.02252189 47.13718868 22.78849481 47.13503429 19.55444336 47.13037109 C15.40357292 47.12467856 11.2527672 47.12794976 7.10189915 47.13394356 C3.91838593 47.13755316 0.73488811 47.13640866 -2.44862556 47.13381577 C-3.97927928 47.13314735 -5.50993438 47.13397194 -7.04058647 47.13629532 C-9.17870675 47.13882784 -11.31672158 47.13497255 -13.45483398 47.12939453 C-14.67315414 47.12859894 -15.8914743 47.12780334 -17.14671326 47.12698364 C-20 47 -20 47 -22 46 C-22 44.35 -22 42.7 -22 41 C-15.4340948 37.7170474 -7.34090518 40 0 40 C0 26.8 0 13.6 0 0 Z " fill="#000000" transform="translate(226,269)"/>
<path d="M0 0 C11.88 0 23.76 0 36 0 C34.19336122 6.62434219 32.41213084 13.0415281 30.1171875 19.4765625 C29.72758347 20.58165665 29.72758347 20.58165665 29.33010864 21.70907593 C28.78918847 23.24047815 28.24636772 24.77121036 27.70166016 26.30126953 C26.86487776 28.65345347 26.03557703 31.00818494 25.20703125 33.36328125 C24.67751785 34.85952884 24.14758581 36.35562836 23.6171875 37.8515625 C23.3692746 38.55560211 23.12136169 39.25964172 22.86593628 39.98501587 C21.11541995 44.88458005 21.11541995 44.88458005 20 46 C18.33382885 46.04063832 16.66611905 46.042721 15 46 C13.17842172 40.89781973 11.36391505 35.7931981 9.55566406 30.6862793 C8.94069786 28.95253277 8.32386919 27.21944562 7.70507812 25.48706055 C6.8113887 22.98400943 5.92462343 20.47859299 5.0390625 17.97265625 C4.76502594 17.20977798 4.49098938 16.44689972 4.20864868 15.66090393 C3.94852997 14.92081589 3.68841125 14.18072784 3.42041016 13.41821289 C3.19390778 12.78089737 2.9674054 12.14358185 2.73403931 11.48695374 C1.61984061 7.71200519 0.85382669 3.84222009 0 0 Z " fill="#000000" transform="translate(145,269)"/>
<path d="M0 0 C1.65 0 3.3 0 5 0 C6.16661952 4.16404764 6.12576063 8.1898068 6.09765625 12.484375 C6.0962413 13.29996887 6.09482635 14.11556274 6.09336853 14.95587158 C6.08778303 17.55395212 6.07523321 20.15194563 6.0625 22.75 C6.05748312 24.51432167 6.05292054 26.27864469 6.04882812 28.04296875 C6.03867039 32.36203945 6.01909219 36.68092262 6 41 C13.26 41 20.52 41 28 41 C28 42.65 28 44.3 28 46 C26.39948336 47.60051664 24.71153878 47.12731472 22.49609375 47.12939453 C21.05955444 47.13412277 21.05955444 47.13412277 19.59399414 47.13894653 C18.55235107 47.1369223 17.51070801 47.13489807 16.4375 47.1328125 C15.37587646 47.13376923 14.31425293 47.13472595 13.22045898 47.13571167 C10.97086528 47.13639364 8.72126963 47.13453819 6.47167969 47.13037109 C3.01492929 47.1250231 -0.44169117 47.13031554 -3.8984375 47.13671875 C-6.07812529 47.13605797 -8.257813 47.13477682 -10.4375 47.1328125 C-11.47914307 47.13483673 -12.52078613 47.13686096 -13.59399414 47.13894653 C-14.55168701 47.13579437 -15.50937988 47.13264221 -16.49609375 47.12939453 C-17.34357178 47.12859894 -18.1910498 47.12780334 -19.06420898 47.12698364 C-21 47 -21 47 -22 46 C-22.04063832 44.33382885 -22.042721 42.66611905 -22 41 C-15.03580586 38.67860195 -7.34090518 40 0 40 C0 26.8 0 13.6 0 0 Z " fill="#000000" transform="translate(94,269)"/>
<path d="M0 0 C1.60332791 -0.08121924 3.20784026 -0.13929134 4.8125 -0.1875 C6.15248047 -0.23970703 6.15248047 -0.23970703 7.51953125 -0.29296875 C10 0 10 0 11.76953125 1.36328125 C13.46990817 3.62505245 13.8653286 5.17190058 14 8 C13.1875 10.75 13.1875 10.75 11 13 C7.67469675 13.79199718 4.4163927 14.08571595 1 14 C0 13 0 13 -0.09765625 10.05859375 C-0.08605469 8.86363281 -0.07445312 7.66867188 -0.0625 6.4375 C-0.05347656 5.23996094 -0.04445312 4.04242188 -0.03515625 2.80859375 C-0.02355469 1.88175781 -0.01195312 0.95492187 0 0 Z M4 3 C4 5.31 4 7.62 4 10 C5.65 9.67 7.3 9.34 9 9 C9.33 8.01 9.66 7.02 10 6 C8.68798827 4.43750191 8.68798827 4.43750191 7 3 C6.01 3 5.02 3 4 3 Z " fill="#010101" transform="translate(233,239)"/>
<path d="M0 0 C3.6875 0.3125 3.6875 0.3125 6.125 1.9375 C8.17241197 5.0495662 8.37301032 6.65644496 7.6875 10.3125 C5.625 12.75 5.625 12.75 2.6875 14.3125 C-3.52302632 14.10197368 -3.52302632 14.10197368 -6.3125 11.3125 C-7.125 9 -7.125 9 -7.3125 6.3125 C-4.36200495 0.4115099 -4.36200495 0.4115099 0 0 Z M-0.3125 3.3125 C-1.7975 5.2925 -1.7975 5.2925 -3.3125 7.3125 C-2.3225 8.7975 -2.3225 8.7975 -1.3125 10.3125 C0.3375 9.9825 1.9875 9.6525 3.6875 9.3125 C3.3575 7.6625 3.0275 6.0125 2.6875 4.3125 C1.6975 3.9825 0.7075 3.6525 -0.3125 3.3125 Z " fill="#020202" transform="translate(272.3125,238.6875)"/>
<path d="M0 0 C2.05078125 0.03255208 4.1015625 0.06510417 6.15234375 0.09765625 C6.48234375 0.75765625 6.81234375 1.41765625 7.15234375 2.09765625 C6.82234375 2.75765625 6.49234375 3.41765625 6.15234375 4.09765625 C4.50234375 4.09765625 2.85234375 4.09765625 1.15234375 4.09765625 C3.13234375 5.08765625 5.11234375 6.07765625 7.15234375 7.09765625 C7.33984375 9.47265625 7.33984375 9.47265625 7.15234375 12.09765625 C2.97277925 14.88403258 1.00565698 13.89328137 -3.84765625 13.09765625 C-3.51765625 11.77765625 -3.18765625 10.45765625 -2.84765625 9.09765625 C-1.85765625 9.09765625 -0.86765625 9.09765625 0.15234375 9.09765625 C-1.16765625 8.10765625 -2.48765625 7.11765625 -3.84765625 6.09765625 C-2.77957394 0.14691194 -2.77957394 0.14691194 0 0 Z " fill="#010101" transform="translate(180.84765625,238.90234375)"/>
<path d="M0 0 C1.32 0.33 2.64 0.66 4 1 C4 3.97 4 6.94 4 10 C4.99 9.67 5.98 9.34 7 9 C7.33 6.03 7.66 3.06 8 0 C9.32 0 10.64 0 12 0 C12.10815225 1.76949095 12.18566083 3.54087487 12.25 5.3125 C12.29640625 6.29863281 12.3428125 7.28476563 12.390625 8.30078125 C12 11 12 11 10.1796875 12.8671875 C7.11505596 14.45991715 5.2603998 13.92141733 2 13 C0 11 0 11 -0.1953125 8.3984375 C-0.17210937 7.40070313 -0.14890625 6.40296875 -0.125 5.375 C-0.10695312 4.37210938 -0.08890625 3.36921875 -0.0703125 2.3359375 C-0.04710937 1.56507813 -0.02390625 0.79421875 0 0 Z " fill="#010101" transform="translate(213,239)"/>
<path d="M0 0 C3.96 0 7.92 0 12 0 C12 0.99 12 1.98 12 3 C10.68 3 9.36 3 8 3 C8 6.3 8 9.6 8 13 C6.68 13 5.36 13 4 13 C4 9.7 4 6.4 4 3 C3.01 3.33 2.02 3.66 1 4 C0.67 2.68 0.34 1.36 0 0 Z " fill="#010101" transform="translate(194,239)"/>
<path d="M0 0 C1.32 0 2.64 0 4 0 C4 4.29 4 8.58 4 13 C2.68 13 1.36 13 0 13 C0 8.71 0 4.42 0 0 Z " fill="#000000" transform="translate(254,239)"/>
</svg>
