<?xml version="1.0" encoding="UTF-8"?>
<svg version="1.1" xmlns="http://www.w3.org/2000/svg" width="500" height="500">
<path d="M0 0 C165 0 330 0 500 0 C500 165 500 330 500 500 C335 500 170 500 0 500 C0 335 0 170 0 0 Z " fill="#F9F9F9" transform="translate(0,0)"/>
<path d="M0 0 C7.59 0 15.18 0 23 0 C23 17.49 23 34.98 23 53 C28.94 53 34.88 53 41 53 C41 52.34 41 51.68 41 51 C47.6 51 54.2 51 61 51 C61 34.17 61 17.34 61 0 C68.26 0 75.52 0 83 0 C83 16.83 83 33.66 83 51 C89.6 51 96.2 51 103 51 C103 52.32 103 53.64 103 55 C82.54 55 62.08 55 41 55 C41 55.66 41 56.32 41 57 C21.2 57 1.4 57 -19 57 C-19 55.68 -19 54.36 -19 53 C-12.73 53 -6.46 53 0 53 C0 35.51 0 18.02 0 0 Z " fill="#090909" transform="translate(231,270)"/>
<path d="M0 0 C9.08452591 -0.04652023 18.16901026 -0.08196864 27.25362968 -0.10362434 C31.47284047 -0.11402257 35.69196922 -0.12810865 39.91113281 -0.15087891 C43.98953167 -0.17274953 48.06785206 -0.18459835 52.14630508 -0.18975449 C53.69547891 -0.19342489 55.24464886 -0.20059163 56.79378891 -0.21146011 C71.78223712 -0.31235038 85.89824168 0.95387541 97.89453125 10.890625 C106.28676331 19.29842707 110.05906061 29.31024247 110.375 41 C110.25338244 47.17546928 109.10481053 52.21177105 107 58 C101.06 58 95.12 58 89 58 C89.04640625 55.98519531 89.0928125 53.97039062 89.140625 51.89453125 C89.16848907 49.89528397 89.19619151 47.89603144 89.21972656 45.89672852 C89.23957267 44.5303881 89.26665914 43.16412941 89.30175781 41.7980957 C89.56028389 31.46085435 89.16180809 20.11388124 82.75 11.4375 C70.79018313 0.83675323 57.15941691 3.59849692 41 3 C41 21.15 41 39.3 41 58 C33.74 58 26.48 58 19 58 C19 39.85 19 21.7 19 3 C12.73 3 6.46 3 0 3 C0 2.01 0 1.02 0 0 Z " fill="#010101" transform="translate(273,172)"/>
<path d="M0 0 C14.19 0 28.38 0 43 0 C47.50099398 10.12723645 47.50099398 10.12723645 49.01464844 14.39624023 C49.3546991 15.35010117 49.69474976 16.3039621 50.04510498 17.28672791 C50.39631409 18.28394363 50.74752319 19.28115936 51.109375 20.30859375 C51.66688446 21.88049217 51.66688446 21.88049217 52.23565674 23.48414612 C53.01384393 25.68110992 53.79024749 27.87870626 54.56494141 30.0769043 C55.75563847 33.45348961 56.95360801 36.82743316 58.15234375 40.20117188 C58.90928669 42.34099288 59.6658122 44.4809616 60.421875 46.62109375 C60.78118103 47.6324791 61.14048706 48.64386444 61.51068115 49.68589783 C61.83812317 50.61769363 62.16556519 51.54948944 62.50292969 52.50952148 C62.79286804 53.33064926 63.0828064 54.15177704 63.38153076 54.99778748 C64 57 64 57 64 59 C56.08 59 48.16 59 40 59 C34.72 43.82 29.44 28.64 24 13 C23.67 28.18 23.34 43.36 23 59 C21.68 59 20.36 59 19 59 C19 40.85 19 22.7 19 4 C12.73 4 6.46 4 0 4 C0 2.68 0 1.36 0 0 Z " fill="#080808" transform="translate(102,171)"/>
<path d="M0 0 C14.19 0 28.38 0 43 0 C43 1.32 43 2.64 43 4 C36.73 4 30.46 4 24 4 C24 22.15 24 40.3 24 59 C16.74 59 9.48 59 2 59 C1.67 43.16 1.34 27.32 1 11 C-4.61 26.84 -10.22 42.68 -16 59 C-17.32 59 -18.64 59 -20 59 C-19.36619417 55.52016481 -18.49454804 52.2540559 -17.35766602 48.90600586 C-16.85693321 47.4243821 -16.85693321 47.4243821 -16.34608459 45.91282654 C-15.98566574 44.85749222 -15.62524689 43.8021579 -15.25390625 42.71484375 C-14.88273178 41.62160294 -14.51155731 40.52836212 -14.12913513 39.4019928 C-13.3447038 37.09421487 -12.55870165 34.78697037 -11.77124023 32.48022461 C-10.56629347 28.94861838 -9.36776581 25.41488016 -8.16992188 21.88085938 C-7.40663413 19.63789008 -6.64297479 17.39504719 -5.87890625 15.15234375 C-5.52051163 14.0949852 -5.162117 13.03762665 -4.79286194 11.94822693 C-4.28740089 10.47133141 -4.28740089 10.47133141 -3.77172852 8.96459961 C-3.47718277 8.10031845 -3.18263702 7.23603729 -2.87916565 6.3455658 C-2 4 -2 4 0 0 Z " fill="#050505" transform="translate(229,171)"/>
<path d="M0 0 C7.26 0 14.52 0 22 0 C22 16.83 22 33.66 22 51 C28.6 51 35.2 51 42 51 C42 52.32 42 53.64 42 55 C21.87 55 1.74 55 -19 55 C-19 54.01 -19 53.02 -19 52 C-12.73 52 -6.46 52 0 52 C0 34.84 0 17.68 0 0 Z " fill="#010101" transform="translate(292,270)"/>
<path d="M0 0 C7.92 0 15.84 0 24 0 C27.465 8.91 27.465 8.91 31 18 C32.77258046 12.45754446 32.77258046 12.45754446 34.4987793 6.90063477 C34.72992432 6.21283936 34.96106934 5.52504395 35.19921875 4.81640625 C35.53699341 3.75595093 35.53699341 3.75595093 35.8815918 2.67407227 C37 1 37 1 39.61254883 0.26147461 C40.40040771 0.17518799 41.1882666 0.08890137 42 0 C38.77989914 9.71189403 35.54800064 19.41970595 32.29623413 29.12104797 C30.77088899 33.67674583 29.26746817 38.23866215 27.78515625 42.80859375 C27.19068737 44.60175595 26.595698 46.39474575 26 48.1875 C25.74661865 48.99219727 25.4932373 49.79689453 25.23217773 50.62597656 C24.5 52.79296875 24.5 52.79296875 23 56 C20.90625 56.70043945 20.90625 56.70043945 19 57 C18.79146393 56.39722733 18.58292786 55.79445465 18.36807251 55.17341614 C16.1957126 48.89497888 14.02168028 42.61712255 11.84667969 36.33959961 C11.03537861 33.99730013 10.22450285 31.65485329 9.4140625 29.31225586 C8.24851706 25.94345816 7.0814389 22.57519484 5.9140625 19.20703125 C5.55253082 18.16102249 5.19099915 17.11501373 4.81851196 16.03730774 C4.47831024 15.05666855 4.13810852 14.07602936 3.78759766 13.06567383 C3.49003571 12.20629715 3.19247375 11.34692047 2.88589478 10.46150208 C2.2686146 8.74635883 1.59820826 7.04980758 0.88827515 5.37089539 C0 3 0 3 0 0 Z " fill="#030303" transform="translate(157,270)"/>
<path d="M0 0 C1.32 0 2.64 0 4 0 C4 17.82 4 35.64 4 54 C9.94 54 15.88 54 22 54 C22 55.32 22 56.64 22 58 C8.47 58 -5.06 58 -19 58 C-19 56.68 -19 55.36 -19 54 C-12.73 54 -6.46 54 0 54 C0 36.18 0 18.36 0 0 Z " fill="#181818" transform="translate(121,269)"/>
<path d="M0 0 C2.375 1.5625 2.375 1.5625 4 4 C3.9375 7.625 3.9375 7.625 3 11 C-0.49124017 13.32749345 -1.89222251 13.50299316 -6 13 C-8.78506308 11.02113939 -9.81084752 9.84067767 -10.5625 6.5 C-10 4 -10 4 -7.8125 1.6875 C-4.75072428 -0.14956543 -3.4804429 -0.713937 0 0 Z " fill="#1F1F1F" transform="translate(358,242)"/>
<path d="M0 0 C8.75 -0.125 8.75 -0.125 11 1 C10.979375 1.886875 10.95875 2.77375 10.9375 3.6875 C10.99286219 6.62169631 11.3305734 9.15493696 12 12 C9.47524538 13.26237731 7.68799534 13.09856404 4.875 13.0625 C3.26625 13.041875 1.6575 13.02125 0 13 C0 8.71 0 4.42 0 0 Z " fill="#444444" transform="translate(211,242)"/>
<path d="M0 0 C7.15789474 -0.35789474 7.15789474 -0.35789474 10.5 1.0625 C12 3 12 3 12.5 6.5 C12 10 12 10 10.5 11.9375 C6.87802345 13.47684003 3.92037077 13.19601854 0 13 C0 8.71 0 4.42 0 0 Z " fill="#050505" transform="translate(316,242)"/>
<path d="M0 0 C1.258125 -0.04125 2.51625 -0.0825 3.8125 -0.125 C4.52019531 -0.14820313 5.22789062 -0.17140625 5.95703125 -0.1953125 C8 0 8 0 11 2 C11.375 5 11.375 5 11 8 C8 10 8 10 4 10 C4 10.99 4 11.98 4 13 C2.68 13 1.36 13 0 13 C0 8.71 0 4.42 0 0 Z " fill="#4C4C4C" transform="translate(155,242)"/>
<path d="M0 0 C0.99 0 1.98 0 3 0 C4.32 2.31 5.64 4.62 7 7 C7.598125 6.01 8.19625 5.02 8.8125 4 C9.8953125 2.515 9.8953125 2.515 11 1 C11.99 1 12.98 1 14 1 C14 4.96 14 8.92 14 13 C13.34 13 12.68 13 12 13 C11.67 11.02 11.34 9.04 11 7 C10.54625 7.825 10.0925 8.65 9.625 9.5 C9.08875 10.325 8.5525 11.15 8 12 C7.34 12 6.68 12 6 12 C5.34 10.68 4.68 9.36 4 8 C3.67 9.65 3.34 11.3 3 13 C2.01 13 1.02 13 0 13 C0 8.71 0 4.42 0 0 Z " fill="#1F1F1F" transform="translate(132,242)"/>
<path d="M0 0 C0.99 0 1.98 0 3 0 C3.83790789 1.78953185 4.67019396 3.58169695 5.5 5.375 C5.9640625 6.37273437 6.428125 7.37046875 6.90625 8.3984375 C8 11 8 11 8 13 C7.01 13 6.02 13 5 13 C4.67 12.34 4.34 11.68 4 11 C0.97065509 10.34227572 0.97065509 10.34227572 -2 10 C-2 10.99 -2 11.98 -2 13 C-2.99 13 -3.98 13 -5 13 C-4.39254603 8.14036821 -2.27241033 4.2594482 0 0 Z " fill="#151515" transform="translate(196,242)"/>
<path d="M0 0 C0.33 0.99 0.66 1.98 1 3 C-0.98 3 -2.96 3 -5 3 C-5 3.66 -5 4.32 -5 5 C-4.21625 5.144375 -3.4325 5.28875 -2.625 5.4375 C0 6 0 6 2 7 C1.125 11.875 1.125 11.875 0 13 C-2.33297433 13.04092937 -4.66705225 13.04241723 -7 13 C-7.33 12.01 -7.66 11.02 -8 10 C-5.69 10.33 -3.38 10.66 -1 11 C-1.33 10.34 -1.66 9.68 -2 9 C-2.825 8.731875 -3.65 8.46375 -4.5 8.1875 C-5.325 7.795625 -6.15 7.40375 -7 7 C-7.8125 4.375 -7.8125 4.375 -8 2 C-4.77208445 -0.1519437 -3.71599191 -0.20086443 0 0 Z " fill="#1E1E1E" transform="translate(268,242)"/>
<path d="M0 0 C0.33 0.99 0.66 1.98 1 3 C-0.98 3 -2.96 3 -5 3 C-5 3.66 -5 4.32 -5 5 C-4.21625 5.144375 -3.4325 5.28875 -2.625 5.4375 C0 6 0 6 2 7 C1.125 11.875 1.125 11.875 0 13 C-2.33297433 13.04092937 -4.66705225 13.04241723 -7 13 C-7.33 12.01 -7.66 11.02 -8 10 C-5.69 10.33 -3.38 10.66 -1 11 C-1.33 10.34 -1.66 9.68 -2 9 C-2.825 8.731875 -3.65 8.46375 -4.5 8.1875 C-5.325 7.795625 -6.15 7.40375 -7 7 C-7.8125 4.375 -7.8125 4.375 -8 2 C-4.77208445 -0.1519437 -3.71599191 -0.20086443 0 0 Z " fill="#1E1E1E" transform="translate(239,242)"/>
<path d="M0 0 C0.99 0 1.98 0 3 0 C3.08121924 1.60332791 3.13929134 3.20784026 3.1875 4.8125 C3.22230469 5.70582031 3.25710938 6.59914062 3.29296875 7.51953125 C3 10 3 10 1.6796875 11.8046875 C-0.88300528 13.6283712 -2.94931298 13.32454117 -6 13 C-8 11 -8 11 -8.1953125 8.6171875 C-8.17210937 7.71226562 -8.14890625 6.80734375 -8.125 5.875 C-8.10695313 4.96492187 -8.08890625 4.05484375 -8.0703125 3.1171875 C-8.04710937 2.41851562 -8.02390625 1.71984375 -8 1 C-7.34 1 -6.68 1 -6 1 C-5.86979167 3.01822917 -5.73958333 5.03645833 -5.609375 7.0546875 C-5.40828125 7.69664062 -5.2071875 8.33859375 -5 9 C-3.68 9.66 -2.36 10.32 -1 11 C-0.67 7.37 -0.34 3.74 0 0 Z " fill="#141414" transform="translate(304,242)"/>
<path d="M0 0 C3.63 0 7.26 0 11 0 C11 0.99 11 1.98 11 3 C9.68 3 8.36 3 7 3 C7 6.3 7 9.6 7 13 C6.01 13 5.02 13 4 13 C4 9.7 4 6.4 4 3 C2.68 3 1.36 3 0 3 C0 2.01 0 1.02 0 0 Z " fill="#282828" transform="translate(277,242)"/>
<path d="M0 0 C0.33 0 0.66 0 1 0 C1 16.83 1 33.66 1 51 C0.67 51 0.34 51 0 51 C-0.495 30.21 -0.495 30.21 -1 9 C-1.99 9.495 -1.99 9.495 -3 10 C-2.01 6.7 -1.02 3.4 0 0 Z " fill="#E6E6E6" transform="translate(230,179)"/>
<path d="M0 0 C0.99 0 1.98 0 3 0 C3 3.3 3 6.6 3 10 C4.98 10 6.96 10 9 10 C9 10.99 9 11.98 9 13 C6.03 13 3.06 13 0 13 C0 8.71 0 4.42 0 0 Z " fill="#282828" transform="translate(175,242)"/>
<path d="M0 0 C2.625 0.375 2.625 0.375 5 1 C5.625 3.375 5.625 3.375 6 6 C5.34 6.66 4.68 7.32 4 8 C1.375 7.625 1.375 7.625 -1 7 C-1.625 4.625 -1.625 4.625 -2 2 C-1.34 1.34 -0.68 0.68 0 0 Z " fill="#E5E5E5" transform="translate(353,245)"/>
<path d="M0 0 C2.375 -0.125 2.375 -0.125 5 0 C5.66 0.66 6.32 1.32 7 2 C6.625 4.625 6.625 4.625 6 7 C4.02 7.33 2.04 7.66 0 8 C0 5.36 0 2.72 0 0 Z " fill="#E7E7E7" transform="translate(319,245)"/>
<path d="M0 0 C7.15789474 -0.35789474 7.15789474 -0.35789474 10.5 1.0625 C12 3 12 3 12.5625 6.5 C12 10 12 10 9.5 11.9375 C8.675 12.288125 7.85 12.63875 7 13 C7 12.01 7 11.02 7 10 C7.66 10 8.32 10 9 10 C9 8.35 9 6.7 9 5 C8.071875 4.731875 7.14375 4.46375 6.1875 4.1875 C3.23759634 3.08851629 1.94384814 2.37581439 0 0 Z " fill="#242424" transform="translate(316,242)"/>
<path d="M0 0 C8.75 -0.125 8.75 -0.125 11 1 C11 2.65 11 4.3 11 6 C8.69 5.67 6.38 5.34 4 5 C4 4.01 4 3.02 4 2 C3.01 1.67 2.02 1.34 1 1 C1 4.96 1 8.92 1 13 C0.67 13 0.34 13 0 13 C0 8.71 0 4.42 0 0 Z " fill="#858585" transform="translate(211,242)"/>
<path d="M0 0 C0.99 0 1.98 0 3 0 C3 4.29 3 8.58 3 13 C2.01 13 1.02 13 0 13 C0 8.71 0 4.42 0 0 Z " fill="#131313" transform="translate(337,242)"/>
<path d="M0 0 C1.98 0 3.96 0 6 0 C4.68 0.33 3.36 0.66 2 1 C2 2.65 2 4.3 2 6 C3.65 6 5.3 6 7 6 C6.67 6.66 6.34 7.32 6 8 C4.68 8 3.36 8 2 8 C2 9.32 2 10.64 2 12 C1.34 12 0.68 12 0 12 C0 8.04 0 4.08 0 0 Z " fill="#040404" transform="translate(156,243)"/>
<path d="M0 0 C0.99 0 1.98 0 3 0 C3.66 1.98 4.32 3.96 5 6 C4.34 6 3.68 6 3 6 C3 6.66 3 7.32 3 8 C2.01 8 1.02 8 0 8 C-0.38063221 5.6739143 -0.71269945 3.33944736 -1 1 C-0.67 0.67 -0.34 0.34 0 0 Z " fill="#585858" transform="translate(196,242)"/>
<path d="M0 0 C0.99 0 1.98 0 3 0 C3 3.96 3 7.92 3 12 C2.34 12 1.68 12 1 12 C1 9.69 1 7.38 1 5 C0.34 5 -0.32 5 -1 5 C-0.67 3.35 -0.34 1.7 0 0 Z " fill="#040404" transform="translate(143,243)"/>
<path d="M0 0 C0.33 0 0.66 0 1 0 C1.2475 0.969375 1.495 1.93875 1.75 2.9375 C2.1625 3.948125 2.575 4.95875 3 6 C5.03243548 6.96877057 5.03243548 6.96877057 7 7 C7 7.66 7 8.32 7 9 C0.125 8.125 0.125 8.125 -1 7 C-1.125 4 -1.125 4 -1 1 C-0.67 0.67 -0.34 0.34 0 0 Z " fill="#0A0A0A" transform="translate(350,246)"/>
<path d="M0 0 C0.33 0.99 0.66 1.98 1 3 C-0.98 3 -2.96 3 -5 3 C-5.33 3.66 -5.66 4.32 -6 5 C-6.99 5.495 -6.99 5.495 -8 6 C-7.625 3.5625 -7.625 3.5625 -7 1 C-4.53721199 -0.231394 -2.7204945 -0.07159196 0 0 Z " fill="#292929" transform="translate(268,242)"/>
<path d="M0 0 C0.33 0.99 0.66 1.98 1 3 C-0.98 3 -2.96 3 -5 3 C-5.33 3.66 -5.66 4.32 -6 5 C-6.99 5.495 -6.99 5.495 -8 6 C-7.625 3.5625 -7.625 3.5625 -7 1 C-4.53721199 -0.231394 -2.7204945 -0.07159196 0 0 Z " fill="#292929" transform="translate(239,242)"/>
<path d="M0 0 C2 3 2 3 2 7 C0.68 7.33 -0.64 7.66 -2 8 C-2 6.35 -2 4.7 -2 3 C-3.32 2.34 -4.64 1.68 -6 1 C-3.92446352 0.4465236 -2.15634036 0 0 0 Z " fill="#0D0D0D" transform="translate(221,247)"/>
<path d="M0 0 C2.97 0 5.94 0 9 0 C8.67 0.99 8.34 1.98 8 3 C5.69 3 3.38 3 1 3 C0.67 2.01 0.34 1.02 0 0 Z " fill="#141414" transform="translate(260,252)"/>
<path d="M0 0 C2.97 0 5.94 0 9 0 C8.67 0.99 8.34 1.98 8 3 C5.69 3 3.38 3 1 3 C0.67 2.01 0.34 1.02 0 0 Z " fill="#141414" transform="translate(231,252)"/>
<path d="M0 0 C1.65 0 3.3 0 5 0 C5 1.32 5 2.64 5 4 C3.35 4 1.7 4 0 4 C0 2.68 0 1.36 0 0 Z " fill="#DFDFDF" transform="translate(158,245)"/>
<path d="M0 0 C1.1446875 0.3403125 1.1446875 0.3403125 2.3125 0.6875 C-1.4375 3.6875 -1.4375 3.6875 -3.6875 3.6875 C-4.3475 5.0075 -5.0075 6.3275 -5.6875 7.6875 C-5.91482116 4.88387237 -6.02831872 3.22563483 -4.5 0.8125 C-2.6875 -0.3125 -2.6875 -0.3125 0 0 Z " fill="#2E2E2E" transform="translate(353.6875,243.3125)"/>
</svg>
